<?xml version="1.0" encoding="utf-8"?>
<!-- Generator: Adobe Illustrator 16.0.0, SVG Export Plug-In . SVG Version: 6.00 Build 0)  -->
<!DOCTYPE svg PUBLIC "-//W3C//DTD SVG 1.1//EN" "http://www.w3.org/Graphics/SVG/1.1/DTD/svg11.dtd" [
	<!ENTITY ns_flows "http://ns.adobe.com/Flows/1.0/">
	<!ENTITY ns_extend "http://ns.adobe.com/Extensibility/1.0/">
	<!ENTITY ns_ai "http://ns.adobe.com/AdobeIllustrator/10.0/">
	<!ENTITY ns_graphs "http://ns.adobe.com/Graphs/1.0/">
]>
<svg version="1.1" id="Layer_1" xmlns:x="&ns_extend;" xmlns:i="&ns_ai;" xmlns:graph="&ns_graphs;"
	 xmlns="http://www.w3.org/2000/svg" xmlns:xlink="http://www.w3.org/1999/xlink" xmlns:a="http://ns.adobe.com/AdobeSVGViewerExtensions/3.0/"
	 x="0px" y="0px" width="92.6px" height="75.8px" viewBox="0 0 92.6 75.8" style="enable-background:new 0 0 92.6 75.8;"
	 xml:space="preserve">
<style type="text/css">
<![CDATA[
	.st0{fill:#E39A64;}
	.st1{fill:#FFFFFF;}
	.st2{fill:none;stroke:#004353;stroke-width:1.459;stroke-linecap:round;stroke-miterlimit:10;}
	.st3{fill:none;stroke:#004353;stroke-miterlimit:10;}
	.st4{fill:#36BDCB;}
	.st5{fill:#004353;}
]]>
</style>
<g>
	<path class="st0" d="M84.4,37.9c0,20.9-17,37.9-37.9,37.9S8.7,58.8,8.7,37.9C8.7,17,25.6,0,46.5,0S84.4,17,84.4,37.9"/>
	<polygon class="st1" points="16.6,13.6 21.5,13.6 22.2,11.8 38.9,12.6 40.1,12.3 46.3,15.4 52.7,12.5 67.8,12.6 70.6,12.5 
		71.7,13.8 76.1,13.7 75.4,57.2 49.4,57.3 49.6,67.1 43.7,67 42.7,62 38.1,57.3 17,57.3 	"/>
	<path class="st4" d="M38.7,35.3c0,0,8.6-3.8,13.1,1.2c4.2,4.7,1.5,12.7-4.6,12.5c0,7,0.4,18.5,0.4,18.5l3.7-5.8l-0.8-9.9
		c0,0,4.9-2.7,5.1-3.3s2.1-8.4,2.1-8.4l-2.9-6l-9.5-2.9l-4.9,1.2L38.7,35.3z"/>
	<path class="st5" d="M71.7,51.5V12.4c0-0.8-0.6-1.4-1.4-1.4H54.2c-1.5,0-3,0.4-4.3,1l-3.3,1.6L43.3,12c-1.3-0.7-2.8-1-4.3-1H22.7
		c-0.8,0-1.4,0.6-1.4,1.4v39.2c0,0.8,0.6,1.4,1.4,1.4h13.8v-2.5H23.9V13.5h15c1.1,0,2.2,0.3,3.2,0.8l3.1,1.6v3.3h2.5v-3.3l3.1-1.6
		c1-0.5,2.1-0.8,3.2-0.8h15v36.9H56.5v2.5h13.8C71.1,52.9,71.7,52.3,71.7,51.5"/>
	<path class="st5" d="M19.7,16.3v-2.5H17c-0.7,0-1.3,0.6-1.3,1.3v40.8c0,0.7,0.6,1.3,1.3,1.3h18.1v-2.5H18.3V16.3H19.7z"/>
	<path class="st5" d="M77.3,55.9V15.1c0-0.7-0.6-1.3-1.3-1.3h-2.7v2.5h1.4v38.3H57.9v2.5h18.1C76.8,57.1,77.3,56.6,77.3,55.9"/>
	<path class="st3" d="M77.3,55.9V15.1c0-0.7-0.6-1.3-1.3-1.3h-2.7v2.5h1.4v38.3H57.9v2.5h18.1C76.8,57.1,77.3,56.6,77.3,55.9z"/>
	<rect x="27" y="16.6" class="st5" width="8.1" height="2.5"/>
	<rect x="52.3" y="16.6" class="st5" width="8.1" height="2.5"/>
	<rect x="38.3" y="16.6" class="st5" width="2.5" height="2.5"/>
	<rect x="63.6" y="16.6" class="st5" width="2.5" height="2.5"/>
	<path class="st5" d="M59.1,41.8c0-6.9-5.6-12.5-12.5-12.5h0c-3.3,0-6.5,1.3-8.8,3.7c-2.4,2.4-3.7,5.5-3.7,8.8c0,4.8,2.7,9.1,7,11.2
		l0.1,0v4.4h-2.8v2.5h2.8v3c0,0.7,0.6,1.3,1.3,1.3h0.1v3c0,0.7,0.6,1.3,1.3,1.3h5.6c0.7,0,1.3-0.6,1.3-1.3v-3h0.1
		c0.7,0,1.3-0.6,1.3-1.3v-3h2.8v-2.5H52V53l0.1,0C56.3,50.9,59.1,46.5,59.1,41.8L59.1,41.8z M48.1,65.9H45v-1.7h3.1V65.9z
		 M49.5,61.6h-5.9v-1.7h5.9V61.6z M55.8,45.5c-1,2.5-3,4.5-5.5,5.5c-0.5,0.2-0.8,0.7-0.8,1.2v5.2h-1.7V45.9h0.1
		c2.2,0,4.1-1.8,4.1-4.1c0-2.2-1.7-4-3.9-4.1v2.5c0.8,0.1,1.4,0.7,1.4,1.5c0,0.9-0.7,1.6-1.6,1.6h-2.8c-0.9,0-1.6-0.7-1.6-1.6
		c0-0.8,0.6-1.5,1.4-1.5v-2.5c-2.2,0.1-3.9,1.9-3.9,4.1c0,2.2,1.8,4.1,4.1,4.1h0.1v11.5h-1.7v-5.2c0-0.5-0.3-1-0.8-1.2
		c-5.1-2.1-7.6-7.9-5.5-13c2.1-5.1,7.9-7.6,13-5.5C55.4,34.6,57.9,40.4,55.8,45.5"/>
	<rect x="32.1" y="28.1" transform="matrix(-0.707 -0.7072 0.7072 -0.707 37.4628 74.2539)" class="st5" width="3.9" height="2.5"/>
	<rect x="27" y="40.5" class="st5" width="3.9" height="2.5"/>
	<rect x="62.2" y="40.5" class="st5" width="3.9" height="2.5"/>
	
		<rect x="57.7" y="27.4" transform="matrix(-0.7074 -0.7068 0.7068 -0.7074 79.9362 91.8248)" class="st5" width="2.5" height="3.9"/>
	<line class="st2" x1="12.3" y1="25.5" x2="3.4" y2="20.3"/>
	<line class="st2" x1="11.2" y1="31.2" x2="0.7" y2="30"/>
	<line class="st2" x1="11.7" y1="38.6" x2="2" y2="41.2"/>
	<line class="st2" x1="79.9" y1="23.9" x2="88.7" y2="18.7"/>
	<line class="st2" x1="81.4" y1="31.2" x2="91.8" y2="30"/>
	<line class="st2" x1="80.9" y1="38" x2="90.5" y2="40.6"/>
</g>
</svg>
