<?xml version="1.0" encoding="utf-8"?>
<!-- Generator: Adobe Illustrator 16.0.0, SVG Export Plug-In . SVG Version: 6.00 Build 0)  -->
<!DOCTYPE svg PUBLIC "-//W3C//DTD SVG 1.1//EN" "http://www.w3.org/Graphics/SVG/1.1/DTD/svg11.dtd" [
	<!ENTITY ns_flows "http://ns.adobe.com/Flows/1.0/">
	<!ENTITY ns_extend "http://ns.adobe.com/Extensibility/1.0/">
	<!ENTITY ns_ai "http://ns.adobe.com/AdobeIllustrator/10.0/">
	<!ENTITY ns_graphs "http://ns.adobe.com/Graphs/1.0/">
]>
<svg version="1.1" id="Layer_1" xmlns:x="&ns_extend;" xmlns:i="&ns_ai;" xmlns:graph="&ns_graphs;"
	 xmlns="http://www.w3.org/2000/svg" xmlns:xlink="http://www.w3.org/1999/xlink" xmlns:a="http://ns.adobe.com/AdobeSVGViewerExtensions/3.0/"
	 x="0px" y="0px" width="70.6px" height="75.8px" viewBox="0 0 70.6 75.8" style="enable-background:new 0 0 70.6 75.8;"
	 xml:space="preserve">
<style type="text/css">
<![CDATA[
	.st0{fill:#E39A64;}
	.st1{fill:#FFFFFF;}
	.st2{fill:none;stroke:#004353;stroke-width:0.652;stroke-linecap:round;stroke-miterlimit:10;}
	.st3{fill:#36BDCB;}
	.st4{fill:#004353;}
]]>
</style>
<g>
	<path class="st1" d="M54,8.7c0,3.1-2.5,5.6-5.6,5.6c-3.1,0-5.6-2.5-5.6-5.6c0-3.1,2.5-5.6,5.6-5.6C51.5,3.1,54,5.6,54,8.7"/>
	<path class="st1" d="M62.7,11.4v6.4l-19.3,0.8c0,0-6.5,5.1-7.4,6.4c-0.9,1.3-3.6,6.8-3.6,6.8l-8.6,3.9l-10.4-2.1
		c0,0-7.3-0.7-9.1,0.3C2.5,34.7,0.3,35.4,1,51.5c1.7,0.5,4.4,0.6,4.4,0.6l0.1,17.4l6.8-0.2l0.3-17.1l8.4-0.3v10.4H27V50.5
		c0-1.3-0.8-4.5-4.4-4.5h-5.9v-6.3l7.7,1.3l10.3-5.2l5.2-7.7l4.9-3.2v29.5H51V37.2h8.5v10h7V34.3c0-2.6-7-3.8-7-3.8l-5.1,0.2
		l0.2-7.8c0,0,6.8,0.6,8.1,0.8c1.3,0.2,4.8-2.7,4.8-4.9s-0.3-7.7-0.3-7.7L62.7,11.4z"/>
	<path class="st1" d="M16.2,24c0,3.3-2.7,6-6,6s-6-2.7-6-6c0-3.3,2.7-6,6-6S16.2,20.7,16.2,24"/>
	<path class="st0" d="M63.4,24.3c-0.4-0.6-0.8-1.2-1.2-1.8c0,0-0.1,0-0.1,0h-7.5c-0.5,0-1,0.4-1,1v7.5c0,0.5,0.4,1,1,1h6.2
		c2.2,0,4,1.8,4,4v10.3h-4.3v-9c0-0.5-0.4-1-1-1h-8.7c-0.5,0-1,0.4-1,1v16.5h-4.3v-29c0-0.4-0.2-0.7-0.5-0.9c-0.3-0.2-0.7-0.1-1,0.1
		l-5,3.7c-0.1,0.1-0.2,0.1-0.2,0.2l-4.2,6.3l-1.4-2l3.4-6.8l7.1-5.9h2.7l2.3,5.6c0.2,0.4,0.5,0.6,0.9,0.6c0.4,0,0.8-0.2,0.9-0.6
		l2.3-5.6h7c-0.6-0.7-1.2-1.3-1.9-2c-1.4-1.4-3-2.6-4.6-3.7c-0.6-0.4-1.2-0.8-1.7-1.1c-0.9,0.7-2,1.1-3.2,1.1c-0.1,0-0.2,0-0.3,0
		c0,0-0.1,0-0.1,0l-0.6,0l0.5-0.4c0.6-0.5,1-1.2,1.3-1.9c-0.6-0.3-1.2-0.6-1.8-0.8c-0.3,1-1.1,1.8-2.2,2l-0.1,0l-0.1-0.1
		c-1-0.9-1.6-2-1.7-3.3c-0.7-0.2-1.3-0.3-2-0.5c-2.2-0.5-4.5-0.7-6.8-0.7c-0.8,0-1.6,0-2.5,0.1c-0.7,0-1.3,0.1-2,0.2
		c-6.9,0.9-13.2,3.9-18.1,8.3c-0.6,0.5-1.1,1.1-1.7,1.6c3.1,0,5.6,2.6,5.6,5.7c0,3.1-2.5,5.7-5.7,5.7c-2.5,0-4.7-1.7-5.4-3.9
		c-0.3,0.6-0.7,1.3-1,1.9c-1.1,2.3-1.9,4.8-2.5,7.4c-0.5,2.3-0.7,4.6-0.7,7c0,4,0.7,7.8,1.9,11.3C3.1,55.1,4,57,5,58.7
		c0.6,1,1.3,2.1,2,3V40H5v11.2H2V38.4c0-2.2,1.8-4,4-4h4v8.7h2v-8.7l11.2,2.4c0.2,0.1,0.5,0.1,0.7,0l8-3.4l1.4,2.1l-8.7,4.4
		l-8.4-1.2c-0.3,0-0.6,0-0.8,0.2c-0.2,0.2-0.3,0.5-0.3,0.7v6.2c0,0.5,0.4,1,1,1h6.2c2.2,0,4,1.8,4,4v10.3h-4.3v-9c0-0.5-0.4-1-1-1
		h-8.7c-0.5,0-1,0.4-1,1v14.4c0.6,0.6,1.3,1.2,2,1.7c0.1,0.1,0.3,0.2,0.4,0.3c0.9,0.7,1.9,1.4,2.8,2c5.2,3.2,11.3,5.1,17.9,5.1
		c16.6,0,30.4-11.9,33.3-27.6c0.1-0.7,0.2-1.3,0.3-2c0.2-1.4,0.3-2.9,0.3-4.4C68.3,35.4,66.5,29.4,63.4,24.3 M49.7,22.1l-1-2.6h2.1
		L49.7,22.1z"/>
	<rect x="30" y="6.2" class="st4" width="2" height="2"/>
	<rect x="25" y="6.2" class="st4" width="2" height="2"/>
	<rect x="20" y="6.2" class="st4" width="2" height="2"/>
	<path class="st1" d="M4.5,23.5c0,0.6,0.1,1.3,0.3,1.8c0,0.1-0.1,0.2-0.1,0.2c-0.2-0.5-0.3-1.1-0.3-1.7c0-0.5,0.1-1,0.2-1.5
		C4.5,22.7,4.5,23.1,4.5,23.5"/>
	<path class="st1" d="M10.1,18.1C10.1,18.2,10.1,18.2,10.1,18.1c-0.2,0.1-0.3,0.1-0.4,0.1c-0.4,0-0.7,0-1,0.1
		C9.1,18.2,9.6,18.1,10.1,18.1C10.1,18.1,10.1,18.1,10.1,18.1"/>
	<path class="st3" d="M46.9,3c0,0,8.4,4.7,1.6,11.5c4.5-1.4,8.5-4.2,4.9-10.1C51.2,1.4,46.9,3,46.9,3"/>
	<path class="st4" d="M48.4,1.2c-4,0-7.2,3.2-7.2,7.2c0,0,0,0.1,0,0.1c0.1,3.9,3.3,7.1,7.2,7.1c1.9,0,3.7-0.8,5-2
		c1.4-1.3,2.3-3.2,2.3-5.3C55.7,4.5,52.4,1.2,48.4,1.2 M51.6,12.6c-0.9,0.7-2,1.1-3.2,1.1c-0.1,0-0.2,0-0.3,0c0,0-0.1,0-0.1,0
		l-0.6,0l0.5-0.4c0.6-0.5,1-1.2,1.3-1.9c0.2-0.4,0.2-0.9,0.3-1.3h-2c0,0.2,0,0.3-0.1,0.5c-0.3,1-1.1,1.8-2.2,2l-0.1,0l-0.1-0.1
		c-1-0.9-1.6-2-1.7-3.3c0-0.2,0-0.4,0-0.6c0-2.9,2.4-5.3,5.3-5.3c2.9,0,5.3,2.4,5.3,5.3C53.7,10.2,52.9,11.7,51.6,12.6"/>
	<path class="st3" d="M64.8,11.5c0,0,0.2,4.5,0.2,6.1s-1,3.7-7.8,3.7l-4.5-0.2l-0.2,12.2h7.7c2.3,0,2.8,3,2.8,13.4H66V33.8
		c0,0-1.4-3.2-10.4-3.9c-0.6-5.6-0.4-6.1-0.4-6.1l6.1-0.2l4.5-2.1l1.7-6.3l-0.5-4.5L64.8,11.5z"/>
	<path class="st4" d="M70,2.5l-7.5-2.5C62.2,0,61.8,0,61.6,0.2c-0.3,0.2-0.4,0.5-0.4,0.8v16.5H43.4c-0.2,0-0.5,0.1-0.6,0.2l-7.5,6.2
		c-0.1,0.1-0.2,0.2-0.3,0.3l-3.6,7.2l-8.1,3.5l-7.1-2.4c-0.1,0-0.2,0-0.3,0H6c-1.9,0-3.7,0.9-4.8,2.4c-0.8,1-1.2,2.3-1.2,3.6v13.7
		c0,0.5,0.4,1,1,1h4v15.5H0v2h17.2c0.5,0,1-0.4,1-1v-6.5h17.7c0.5,0,1-0.4,1-1v-6.5h14c0.5,0,1-0.4,1-1v-6.5h17.5v-2h-2.5V35.9
		c0-3.3-2.7-6-6-6h-5.3v-5.5h6.5c0.4,0,0.9,0,1.3-0.1c2.7-0.6,4.7-3,4.7-5.8V11c0-0.5-0.4-1-1-1h-4V6.7L70,4.4
		c0.4-0.1,0.7-0.5,0.7-0.9C70.6,3.1,70.4,2.7,70,2.5 M50.7,19.5l-1,2.6l-1-2.6H50.7z M20,61.2h-2.8c-0.5,0-1,0.4-1,1v6.5h-3V53.2H20
		V61.2z M26.2,61.2h-4.3v-9c0-0.5-0.4-1-1-1h-8.7c-0.5,0-1,0.4-1,1v16.5H7V40H5v11.2H2V38.4c0-2.2,1.8-4,4-4h4v8.7h2v-8.7l11.2,2.4
		c0.2,0.1,0.5,0.1,0.7,0l8-3.4l1.4,2.1l-8.7,4.4l-8.4-1.2c-0.3,0-0.6,0-0.8,0.2c-0.2,0.2-0.3,0.5-0.3,0.7v6.2c0,0.5,0.4,1,1,1h6.2
		c2.2,0,4,1.8,4,4V61.2z M43.7,53.7h-7.8c-0.5,0-1,0.4-1,1v6.5h-6.8V50.9c0-3.3-2.7-6-6-6H17v-4.1l7.6,1.1c0.2,0,0.4,0,0.6-0.1l10-5
		c0.1-0.1,0.2-0.2,0.3-0.3l0.1-0.1l4.9-7.3l3.3-2.5V53.7z M58.7,46.2h-6.8v-8h6.8V46.2z M66.2,12v6.5c0,2.2-1.8,4-3.9,4
		c0,0-0.1,0-0.1,0h-7.5c-0.5,0-1,0.4-1,1v7.5c0,0.5,0.4,1,1,1h6.2c2.2,0,4,1.8,4,4v10.3h-4.3v-9c0-0.5-0.4-1-1-1h-8.7
		c-0.5,0-1,0.4-1,1v16.5h-4.3v-29c0-0.4-0.2-0.7-0.5-0.9c-0.3-0.2-0.7-0.1-1,0.1l-5,3.7c-0.1,0.1-0.2,0.1-0.2,0.2l-4.2,6.3l-1.4-2
		l3.4-6.8l7.1-5.9h2.7l2.3,5.6c0.2,0.4,0.5,0.6,0.9,0.6c0.4,0,0.8-0.2,0.9-0.6l2.3-5.6h9.3c0.5,0,1-0.4,1-1V12H66.2z M63.1,4.6V2.4
		l3.4,1.1L63.1,4.6z"/>
	<line class="st2" x1="3.3" y1="54.9" x2="3.3" y2="63"/>
	<path class="st4" d="M11.8,16.5c-0.7-0.2-1.4-0.3-2.1-0.3c-4,0-7.2,3.2-7.2,7.2c0,1.5,0.4,2.8,1.2,4c1.3,2,3.5,3.3,6,3.3
		c4,0,7.2-3.2,7.2-7.2C17,20.2,14.8,17.4,11.8,16.5 M10.1,29.5c-2.5,0-4.7-1.7-5.4-3.9c0-0.1,0.1-0.2,0.1-0.2
		c-0.2-0.6-0.3-1.2-0.3-1.8c0-0.4,0-0.8,0.1-1.2c0,0,0,0,0,0c0.5-2,2-3.5,4-3.9c0,0,0,0,0,0c0.3-0.1,0.7-0.1,1-0.1
		c0.1,0,0.2,0,0.3,0c0,0,0-0.1,0.1-0.1c3.1,0,5.6,2.6,5.6,5.7C15.7,26.9,13.2,29.5,10.1,29.5"/>
	<line class="st2" x1="3.3" y1="64.5" x2="3.3" y2="66.2"/>
	<polyline class="st2" points="18.7,31.3 23.1,32.9 30.2,30.3 	"/>
	<line class="st2" x1="31" y1="28.9" x2="31.8" y2="27.2"/>
	<line class="st2" x1="42.2" y1="29.8" x2="42.2" y2="47.2"/>
	<line class="st2" x1="42.2" y1="48.5" x2="42.2" y2="51.3"/>
</g>
</svg>
