<?xml version="1.0" encoding="utf-8"?>
<!-- Generator: Adobe Illustrator 16.0.0, SVG Export Plug-In . SVG Version: 6.00 Build 0)  -->
<!DOCTYPE svg PUBLIC "-//W3C//DTD SVG 1.1//EN" "http://www.w3.org/Graphics/SVG/1.1/DTD/svg11.dtd" [
	<!ENTITY ns_flows "http://ns.adobe.com/Flows/1.0/">
	<!ENTITY ns_extend "http://ns.adobe.com/Extensibility/1.0/">
	<!ENTITY ns_ai "http://ns.adobe.com/AdobeIllustrator/10.0/">
	<!ENTITY ns_graphs "http://ns.adobe.com/Graphs/1.0/">
]>
<svg version="1.1" id="Layer_1" xmlns:x="&ns_extend;" xmlns:i="&ns_ai;" xmlns:graph="&ns_graphs;"
	 xmlns="http://www.w3.org/2000/svg" xmlns:xlink="http://www.w3.org/1999/xlink" xmlns:a="http://ns.adobe.com/AdobeSVGViewerExtensions/3.0/"
	 x="0px" y="0px" width="120.8px" height="117px" viewBox="0 0 120.8 117" style="enable-background:new 0 0 120.8 117;"
	 xml:space="preserve">
<style type="text/css">
<![CDATA[
	.st0{fill:#E39A64;}
	.st1{fill:none;stroke:#004353;stroke-width:3.643;stroke-miterlimit:10;}
	.st2{fill:none;stroke:#004353;stroke-width:2.915;stroke-miterlimit:10;}
	.st3{fill:none;stroke:#004353;stroke-width:3.643;stroke-linecap:round;stroke-miterlimit:10;}
	.st4{fill:#FFFFFF;}
	.st5{fill:#36BDCB;}
	.st6{fill:#004353;}
]]>
</style>
<g>
	<path class="st0" d="M114,63.4C114,93,90,117,60.4,117C30.8,117,6.8,93,6.8,63.4s24-53.6,53.6-53.6C90,9.9,114,33.8,114,63.4"/>
	<path class="st4" d="M59.7,42.9c2.5,0,4.9-0.7,6.9-2l-6.9-8.4L52.9,41C54.9,42.2,57.2,42.9,59.7,42.9"/>
	<rect x="37" y="3.4" class="st4" width="21" height="11.4"/>
	<path class="st4" d="M59.7,46.3c-3.3,0-6.4-1-8.9-2.6l-2.2,2.8c3.2,2.2,7,3.5,11.2,3.5c4.2,0,8.1-1.4,11.3-3.6l-2.2-2.7
		C66.2,45.3,63.1,46.3,59.7,46.3"/>
	<path class="st4" d="M59.7,53.4c-5,0-9.5-1.6-13.3-4.2L36.1,62L48,58.8l12.2,12.4l9.6-12.4l15,4.4L73.2,49
		C69.4,51.7,64.8,53.4,59.7,53.4"/>
	<polygon class="st4" points="60.5,76.3 47,62.6 32.5,66.5 7.1,98.3 113.6,98.3 88.7,67.9 71.1,62.7 	"/>
	<rect x="14.9" y="9.3" class="st6" width="3.4" height="4.4"/>
	<rect x="14.9" y="17.5" class="st6" width="3.4" height="4.4"/>
	<rect x="18.5" y="13.9" class="st6" width="4.4" height="3.4"/>
	<rect x="10.3" y="13.9" class="st6" width="4.4" height="3.4"/>
	<rect x="8.5" y="48.1" class="st6" width="3.4" height="4.4"/>
	<rect x="8.5" y="56.3" class="st6" width="3.4" height="4.4"/>
	<rect x="12.2" y="52.7" class="st6" width="4.4" height="3.4"/>
	<rect x="106.3" y="58.6" class="st6" width="3.4" height="4.4"/>
	<rect x="106.3" y="66.8" class="st6" width="3.4" height="4.4"/>
	<rect x="109.9" y="63.2" class="st6" width="4.4" height="3.4"/>
	<rect x="101.7" y="63.2" class="st6" width="4.4" height="3.4"/>
	<rect x="76.5" y="3.6" class="st6" width="3.4" height="4.4"/>
	<rect x="80.1" class="st6" width="4.4" height="3.4"/>
	<rect x="71.9" class="st6" width="4.4" height="3.4"/>
	<rect x="104.4" y="3.6" class="st6" width="3.4" height="4.4"/>
	<rect x="104.4" y="11.8" class="st6" width="3.4" height="4.4"/>
	<rect x="108" y="8.2" class="st6" width="4.4" height="3.4"/>
	<rect x="99.8" y="8.2" class="st6" width="4.4" height="3.4"/>
	<polygon class="st5" points="117.6,100.8 58.8,30.9 55,36.2 105.8,94.7 110.8,100.3 	"/>
	<line class="st3" x1="9.1" y1="106.7" x2="114.2" y2="106.7"/>
	<line class="st3" x1="44.7" y1="112.4" x2="105.4" y2="112.4"/>
	<line class="st3" x1="19.4" y1="112.4" x2="36.4" y2="112.4"/>
	<path class="st6" d="M120.8,101.8l-44.9-55c4.3-4.2,6.9-10,6.9-16.5c0-12.1-9.4-22.1-21.4-23V0H33.6v18.3h6.5
		c-2.2,3.6-3.4,7.8-3.4,12.1c0,6.5,2.7,12.4,7.1,16.6L0,101.8H120.8z M61.4,10.8c10,0.9,17.9,9.3,17.9,19.6c0,5.4-2.2,10.3-5.7,13.8
		l-2.2-2.7c3-3,4.8-7.1,4.8-11.7c0-6.5-3.8-12.3-9.6-15c-0.2-0.1-0.4-0.2-0.6-0.3c0,0-0.1,0-0.1,0l0,0c-0.1,0-0.2,0-0.3,0
		c-1,0-1.7,0.8-1.7,1.7c0,0.8,0.6,1.5,1.3,1.7c4.7,2.1,7.7,6.8,7.7,11.9c0,3.5-1.4,6.6-3.6,9l-7.8-9.6V10.8z M71.1,46.3
		C67.9,48.6,64,50,59.7,50c-4.1,0-8-1.3-11.2-3.5l2.2-2.8c2.6,1.7,5.6,2.6,8.9,2.6c3.4,0,6.5-1,9.1-2.7L71.1,46.3z M66.6,40.9
		c-2,1.2-4.4,2-6.9,2c-2.5,0-4.8-0.7-6.8-1.9l6.8-8.5L66.6,40.9z M37,3.4h21v11.4H37V3.4z M40.1,30.3c0-4.4,1.5-8.6,4.2-12.1H58
		v10.9l-7.8,9.7c-2.3-2.4-3.7-5.6-3.7-9.1c0-2.4,0.7-4.8,1.9-6.8c0.3-0.3,0.5-0.8,0.5-1.3c0-1-0.8-1.7-1.7-1.7c-0.5,0-1,0.2-1.3,0.6
		l0,0c0,0.1-0.1,0.1-0.1,0.2c0,0,0,0,0,0.1c-1.7,2.7-2.7,5.8-2.7,9c0,4.6,1.9,8.8,4.9,11.8l-2.2,2.7C42.3,40.7,40.1,35.8,40.1,30.3
		 M46.4,49.1c3.8,2.7,8.3,4.2,13.3,4.2c5,0,9.7-1.6,13.5-4.4l11.6,14.2l-15-4.4l-9.6,12.4L48,58.8L36.1,62L46.4,49.1z M47,62.6
		l13.5,13.7l10.6-13.7l17.6,5.2l24.9,30.4H7.1l25.4-31.8L47,62.6z"/>
	<line class="st2" x1="42.9" y1="83.1" x2="90.4" y2="83.1"/>
	<line class="st2" x1="26" y1="90.9" x2="73.5" y2="90.9"/>
	<line class="st1" x1="26" y1="83.1" x2="36.7" y2="83.1"/>
	<line class="st2" x1="79.7" y1="90.9" x2="90.4" y2="90.9"/>
</g>
</svg>
